<svg width="236" height="34" viewBox="0 0 236 34" fill="none" xmlns="http://www.w3.org/2000/svg">
<path d="M13.535 33.495C12.275 33.495 10.985 33.39 9.665 33.18C8.375 33 7.13 32.73 5.93 32.37C4.76 32.01 3.71 31.56 2.78 31.02C2.12 30.66 1.655 30.195 1.385 29.625C1.115 29.025 1.01 28.425 1.07 27.825C1.16 27.225 1.385 26.7 1.745 26.25C2.135 25.77 2.615 25.47 3.185 25.35C3.785 25.2 4.445 25.305 5.165 25.665C6.395 26.355 7.73 26.865 9.17 27.195C10.64 27.525 12.095 27.69 13.535 27.69C15.725 27.69 17.285 27.36 18.215 26.7C19.145 26.01 19.61 25.155 19.61 24.135C19.61 23.265 19.28 22.575 18.62 22.065C17.96 21.555 16.805 21.12 15.155 20.76L10.07 19.68C7.19 19.08 5.045 18.06 3.635 16.62C2.255 15.15 1.565 13.23 1.565 10.86C1.565 9.36 1.88 7.995 2.51 6.765C3.14 5.535 4.025 4.47 5.165 3.57C6.305 2.67 7.655 1.98 9.215 1.5C10.805 1.02 12.545 0.779999 14.435 0.779999C16.115 0.779999 17.765 0.989999 19.385 1.41C21.005 1.8 22.43 2.385 23.66 3.165C24.26 3.525 24.665 3.99 24.875 4.56C25.115 5.1 25.19 5.655 25.1 6.225C25.04 6.765 24.815 7.245 24.425 7.665C24.065 8.085 23.6 8.355 23.03 8.475C22.46 8.595 21.77 8.46 20.96 8.07C19.97 7.56 18.92 7.185 17.81 6.945C16.7 6.705 15.56 6.585 14.39 6.585C13.13 6.585 12.05 6.75 11.15 7.08C10.28 7.41 9.605 7.875 9.125 8.475C8.675 9.075 8.45 9.765 8.45 10.545C8.45 11.415 8.765 12.12 9.395 12.66C10.025 13.2 11.12 13.635 12.68 13.965L17.765 15.045C20.705 15.675 22.895 16.695 24.335 18.105C25.775 19.485 26.495 21.315 26.495 23.595C26.495 25.095 26.195 26.46 25.595 27.69C24.995 28.89 24.125 29.925 22.985 30.795C21.845 31.665 20.48 32.34 18.89 32.82C17.3 33.27 15.515 33.495 13.535 33.495ZM41.1931 33.495C38.7931 33.495 36.6931 33.03 34.8931 32.1C33.1231 31.14 31.7581 29.79 30.7981 28.05C29.8381 26.31 29.3581 24.255 29.3581 21.885C29.3581 20.115 29.6281 18.525 30.1681 17.115C30.7081 15.705 31.4881 14.505 32.5081 13.515C33.5581 12.525 34.8181 11.775 36.2881 11.265C37.7581 10.725 39.3931 10.455 41.1931 10.455C42.1231 10.455 43.1131 10.575 44.1631 10.815C45.2131 11.025 46.2481 11.4 47.2681 11.94C47.8681 12.21 48.2731 12.6 48.4831 13.11C48.7231 13.59 48.8131 14.1 48.7531 14.64C48.6931 15.15 48.4981 15.615 48.1681 16.035C47.8681 16.425 47.4781 16.695 46.9981 16.845C46.5181 16.965 45.9781 16.875 45.3781 16.575C44.8081 16.245 44.2081 16.005 43.5781 15.855C42.9781 15.705 42.4081 15.63 41.8681 15.63C40.9681 15.63 40.1731 15.78 39.4831 16.08C38.7931 16.35 38.2081 16.755 37.7281 17.295C37.2781 17.805 36.9181 18.45 36.6481 19.23C36.4081 20.01 36.2881 20.91 36.2881 21.93C36.2881 23.91 36.7681 25.47 37.7281 26.61C38.7181 27.72 40.0981 28.275 41.8681 28.275C42.4081 28.275 42.9781 28.215 43.5781 28.095C44.1781 27.945 44.7781 27.705 45.3781 27.375C45.9781 27.075 46.5181 27 46.9981 27.15C47.4781 27.3 47.8531 27.585 48.1231 28.005C48.4231 28.395 48.5881 28.86 48.6181 29.4C48.6781 29.91 48.5881 30.42 48.3481 30.93C48.1381 31.41 47.7481 31.785 47.1781 32.055C46.1581 32.565 45.1381 32.925 44.1181 33.135C43.0981 33.375 42.1231 33.495 41.1931 33.495ZM55.3474 33.405C54.2374 33.405 53.3824 33.105 52.7824 32.505C52.2124 31.905 51.9274 31.05 51.9274 29.94V4.335C51.9274 3.195 52.2124 2.34 52.7824 1.77C53.3824 1.17 54.2374 0.869998 55.3474 0.869998C56.4274 0.869998 57.2524 1.17 57.8224 1.77C58.4224 2.34 58.7224 3.195 58.7224 4.335V15.045H58.0924C58.7824 13.575 59.8024 12.45 61.1524 11.67C62.5324 10.86 64.0924 10.455 65.8324 10.455C67.6024 10.455 69.0574 10.8 70.1974 11.49C71.3374 12.15 72.1924 13.17 72.7624 14.55C73.3324 15.9 73.6174 17.625 73.6174 19.725V29.94C73.6174 31.05 73.3174 31.905 72.7174 32.505C72.1474 33.105 71.3074 33.405 70.1974 33.405C69.1174 33.405 68.2774 33.105 67.6774 32.505C67.1074 31.905 66.8224 31.05 66.8224 29.94V20.04C66.8224 18.51 66.5374 17.415 65.9674 16.755C65.4274 16.065 64.5874 15.72 63.4474 15.72C62.0074 15.72 60.8524 16.17 59.9824 17.07C59.1424 17.97 58.7224 19.17 58.7224 20.67V29.94C58.7224 32.25 57.5974 33.405 55.3474 33.405ZM139.653 33.495C136.983 33.495 134.988 32.76 133.668 31.29C132.348 29.79 131.688 27.57 131.688 24.63V4.335C131.688 3.195 131.973 2.34 132.543 1.77C133.143 1.17 133.998 0.869998 135.108 0.869998C136.188 0.869998 137.013 1.17 137.583 1.77C138.183 2.34 138.483 3.195 138.483 4.335V24.36C138.483 25.59 138.738 26.505 139.248 27.105C139.788 27.675 140.493 27.96 141.363 27.96C141.603 27.96 141.828 27.945 142.038 27.915C142.248 27.885 142.473 27.87 142.713 27.87C143.193 27.81 143.523 27.96 143.703 28.32C143.913 28.65 144.018 29.325 144.018 30.345C144.018 31.245 143.838 31.935 143.478 32.415C143.118 32.865 142.563 33.165 141.813 33.315C141.513 33.345 141.168 33.375 140.778 33.405C140.388 33.465 140.013 33.495 139.653 33.495ZM154.143 33.495C152.523 33.495 151.068 33.18 149.778 32.55C148.488 31.92 147.483 31.065 146.763 29.985C146.043 28.905 145.683 27.69 145.683 26.34C145.683 24.72 146.103 23.445 146.943 22.515C147.783 21.555 149.148 20.88 151.038 20.49C152.928 20.07 155.433 19.86 158.553 19.86H160.938V23.37H158.598C157.068 23.37 155.823 23.46 154.863 23.64C153.933 23.79 153.258 24.06 152.838 24.45C152.448 24.84 152.253 25.38 152.253 26.07C152.253 26.91 152.538 27.6 153.108 28.14C153.708 28.68 154.563 28.95 155.673 28.95C156.543 28.95 157.308 28.755 157.968 28.365C158.658 27.945 159.198 27.39 159.588 26.7C159.978 25.98 160.173 25.17 160.173 24.27V19.095C160.173 17.775 159.873 16.845 159.273 16.305C158.673 15.735 157.653 15.45 156.213 15.45C155.403 15.45 154.518 15.555 153.558 15.765C152.628 15.945 151.593 16.26 150.453 16.71C149.793 17.01 149.208 17.085 148.698 16.935C148.188 16.755 147.798 16.455 147.528 16.035C147.258 15.585 147.123 15.105 147.123 14.595C147.123 14.055 147.273 13.545 147.573 13.065C147.873 12.555 148.368 12.18 149.058 11.94C150.468 11.37 151.788 10.98 153.018 10.77C154.278 10.56 155.433 10.455 156.483 10.455C158.793 10.455 160.683 10.8 162.153 11.49C163.653 12.15 164.778 13.185 165.528 14.595C166.278 15.975 166.653 17.76 166.653 19.95V29.94C166.653 31.05 166.383 31.905 165.843 32.505C165.303 33.105 164.523 33.405 163.503 33.405C162.483 33.405 161.688 33.105 161.118 32.505C160.578 31.905 160.308 31.05 160.308 29.94V28.275L160.623 28.545C160.443 29.565 160.053 30.45 159.453 31.2C158.883 31.92 158.148 32.49 157.248 32.91C156.348 33.3 155.313 33.495 154.143 33.495ZM175.232 33.405C174.092 33.405 173.222 33.105 172.622 32.505C172.022 31.905 171.722 31.05 171.722 29.94V13.965C171.722 12.855 172.007 12.015 172.577 11.445C173.177 10.845 174.002 10.545 175.052 10.545C176.132 10.545 176.957 10.845 177.527 11.445C178.097 12.015 178.382 12.855 178.382 13.965V16.305H177.932C178.292 14.505 179.087 13.11 180.317 12.12C181.547 11.13 183.137 10.575 185.087 10.455C185.837 10.395 186.407 10.59 186.797 11.04C187.217 11.46 187.442 12.165 187.472 13.155C187.532 14.085 187.337 14.82 186.887 15.36C186.467 15.9 185.747 16.23 184.727 16.35L183.692 16.44C181.982 16.59 180.707 17.085 179.867 17.925C179.057 18.765 178.652 19.98 178.652 21.57V29.94C178.652 31.05 178.352 31.905 177.752 32.505C177.182 33.105 176.342 33.405 175.232 33.405Z" fill="black"/>
<path d="M89.3101 33.495C86.9401 33.495 84.8701 33.03 83.1001 32.1C81.3601 31.17 80.0101 29.835 79.0501 28.095C78.0901 26.355 77.6101 24.3 77.6101 21.93C77.6101 20.16 77.8801 18.57 78.4201 17.16C78.9601 15.75 79.7401 14.55 80.7601 13.56C81.8101 12.54 83.0551 11.775 84.4951 11.265C85.9351 10.725 87.5401 10.455 89.3101 10.455C91.6801 10.455 93.7351 10.92 95.4751 11.85C97.2451 12.78 98.6101 14.1 99.5701 15.81C100.56 17.52 101.055 19.56 101.055 21.93C101.055 23.73 100.77 25.335 100.2 26.745C99.6601 28.155 98.8801 29.37 97.8601 30.39C96.8401 31.41 95.5951 32.19 94.1251 32.73C92.6851 33.24 91.0801 33.495 89.3101 33.495ZM89.3101 28.41C90.3001 28.41 91.1551 28.17 91.8751 27.69C92.5951 27.21 93.1651 26.505 93.5851 25.575C94.0051 24.615 94.2151 23.4 94.2151 21.93C94.2151 19.74 93.7651 18.135 92.8651 17.115C91.9651 16.065 90.7801 15.54 89.3101 15.54C88.3501 15.54 87.4951 15.765 86.7451 16.215C86.0251 16.665 85.4551 17.37 85.0351 18.33C84.6451 19.26 84.4501 20.46 84.4501 21.93C84.4501 24.12 84.9001 25.755 85.8001 26.835C86.7001 27.885 87.8701 28.41 89.3101 28.41Z" fill="url(#paint0_linear_73_205)"/>
<path d="M115.809 33.495C113.439 33.495 111.369 33.03 109.599 32.1C107.859 31.17 106.509 29.835 105.549 28.095C104.589 26.355 104.109 24.3 104.109 21.93C104.109 20.16 104.379 18.57 104.919 17.16C105.459 15.75 106.239 14.55 107.259 13.56C108.309 12.54 109.554 11.775 110.994 11.265C112.434 10.725 114.039 10.455 115.809 10.455C118.179 10.455 120.234 10.92 121.974 11.85C123.744 12.78 125.109 14.1 126.069 15.81C127.059 17.52 127.554 19.56 127.554 21.93C127.554 23.73 127.269 25.335 126.699 26.745C126.159 28.155 125.379 29.37 124.359 30.39C123.339 31.41 122.094 32.19 120.624 32.73C119.184 33.24 117.579 33.495 115.809 33.495ZM115.809 28.41C116.799 28.41 117.654 28.17 118.374 27.69C119.094 27.21 119.664 26.505 120.084 25.575C120.504 24.615 120.714 23.4 120.714 21.93C120.714 19.74 120.264 18.135 119.364 17.115C118.464 16.065 117.279 15.54 115.809 15.54C114.849 15.54 113.994 15.765 113.244 16.215C112.524 16.665 111.954 17.37 111.534 18.33C111.144 19.26 110.949 20.46 110.949 21.93C110.949 24.12 111.399 25.755 112.299 26.835C113.199 27.885 114.369 28.41 115.809 28.41Z" fill="url(#paint1_linear_73_205)"/>
<path d="M192.498 33.225C191.298 33.225 190.338 32.865 189.618 32.145C188.928 31.425 188.583 30.495 188.583 29.355C188.583 28.245 188.928 27.345 189.618 26.655C190.338 25.935 191.298 25.575 192.498 25.575C193.698 25.575 194.628 25.935 195.288 26.655C195.978 27.345 196.323 28.245 196.323 29.355C196.323 30.495 195.978 31.425 195.288 32.145C194.628 32.865 193.698 33.225 192.498 33.225ZM204.322 33.36C203.212 33.36 202.357 33.045 201.757 32.415C201.187 31.755 200.902 30.84 200.902 29.67V14.28C200.902 13.08 201.187 12.165 201.757 11.535C202.357 10.875 203.212 10.545 204.322 10.545C205.402 10.545 206.227 10.875 206.797 11.535C207.397 12.165 207.697 13.08 207.697 14.28V29.67C207.697 30.84 207.412 31.755 206.842 32.415C206.272 33.045 205.432 33.36 204.322 33.36ZM204.322 6.855C203.062 6.855 202.087 6.57 201.397 6C200.737 5.4 200.407 4.56 200.407 3.48C200.407 2.37 200.737 1.53 201.397 0.959999C202.087 0.359998 203.062 0.0599976 204.322 0.0599976C205.582 0.0599976 206.542 0.359998 207.202 0.959999C207.862 1.53 208.192 2.37 208.192 3.48C208.192 4.56 207.862 5.4 207.202 6C206.542 6.57 205.582 6.855 204.322 6.855ZM223.563 33.495C221.193 33.495 219.123 33.03 217.353 32.1C215.613 31.17 214.263 29.835 213.303 28.095C212.343 26.355 211.863 24.3 211.863 21.93C211.863 20.16 212.133 18.57 212.673 17.16C213.213 15.75 213.993 14.55 215.013 13.56C216.063 12.54 217.308 11.775 218.748 11.265C220.188 10.725 221.793 10.455 223.563 10.455C225.933 10.455 227.988 10.92 229.728 11.85C231.498 12.78 232.863 14.1 233.823 15.81C234.813 17.52 235.308 19.56 235.308 21.93C235.308 23.73 235.023 25.335 234.453 26.745C233.913 28.155 233.133 29.37 232.113 30.39C231.093 31.41 229.848 32.19 228.378 32.73C226.938 33.24 225.333 33.495 223.563 33.495ZM223.563 28.41C224.553 28.41 225.408 28.17 226.128 27.69C226.848 27.21 227.418 26.505 227.838 25.575C228.258 24.615 228.468 23.4 228.468 21.93C228.468 19.74 228.018 18.135 227.118 17.115C226.218 16.065 225.033 15.54 223.563 15.54C222.603 15.54 221.748 15.765 220.998 16.215C220.278 16.665 219.708 17.37 219.288 18.33C218.898 19.26 218.703 20.46 218.703 21.93C218.703 24.12 219.153 25.755 220.053 26.835C220.953 27.885 222.123 28.41 223.563 28.41Z" fill="#1E90FF"/>
<defs>
<linearGradient id="paint0_linear_73_205" x1="71.5" y1="24" x2="102" y2="24" gradientUnits="userSpaceOnUse">
<stop stop-color="#1E90FF"/>
<stop offset="1" stop-color="#990099"/>
</linearGradient>
<linearGradient id="paint1_linear_73_205" x1="103" y1="25" x2="134.5" y2="25" gradientUnits="userSpaceOnUse">
<stop stop-color="#990099"/>
<stop offset="1" stop-color="#1E90FF"/>
</linearGradient>
</defs>
</svg>